<?xml version="1.0" encoding="UTF-8"?>
<svg id="Layer_2" data-name="Layer 2" xmlns="http://www.w3.org/2000/svg" viewBox="0 0 408.84 99.37">
  <defs>
    <style>
      .cls-1 {
        fill: #333;
        stroke-width: 0px;
      }
    </style>
  </defs>
  <g id="Layer_2-2" data-name="Layer 2">
    <path class="cls-1" d="M85.7,56.58c-3.39-4.51-8.16-7.22-14.31-8.13,6.24-1.14,10.82-3.77,13.73-7.89,2.92-4.12,4.38-8.67,4.38-13.64,0-8.2-2.4-14.73-7.18-19.61-4.78-4.87-12.07-7.31-21.87-7.31h-12.23v12.91h9.7c5.83,0,10.21,1.23,13.12,3.69,2.92,2.46,4.38,6.18,4.38,11.14,0,4.7-1.31,8.26-3.93,10.7s-6.51,3.66-11.65,3.66h-11.62v12.57h11.62c6.01,0,10.33,1.47,12.95,4.41s3.93,6.87,3.93,11.79v.2c0,4.61-1.54,8.32-4.62,11.14-3.07,2.83-8.3,4.24-15.68,4.24h-8.2v12.92h13.39c8.98,0,16.09-2.49,21.33-7.45,5.23-4.97,7.85-11.51,7.85-19.62v-.2c0-5.83-1.69-11-5.09-15.52ZM28.04,99.37h13.93v-12.92h-.06v-31.78h.06v-12.57h-.06V12.91h.06V0h-13.93v99.37Z"/>
    <path class="cls-1" d="M20.04,34.65v40h-.04c-11.04,0-20-8.96-20-20s8.96-20,20-20h.04Z"/>
    <path class="cls-1" d="M388.8,34.65v40s.04,0,.04,0c11.04,0,20-8.96,20-20,0-11.05-8.96-20-20-20h-.04Z"/>
    <g>
      <path class="cls-1" d="M110.98,74.62c-5.09,0-9.02-1.42-11.81-4.25-2.79-2.84-4.18-6.87-4.18-12.09v-4.11c0-5.44,1.34-9.64,4.03-12.62,2.68-2.98,6.46-4.46,11.34-4.46,4.59,0,8.15,1.69,10.67,5.06,2.52,3.38,3.78,8.11,3.78,14.2v2.39h-24.61v-5.77h17.79c-.21-2.95-.98-5.26-2.3-6.93-1.32-1.66-3.1-2.5-5.33-2.5-2.7,0-4.79.89-6.29,2.67-1.5,1.78-2.25,4.3-2.25,7.56v4.64c0,3.02.8,5.34,2.41,6.96,1.6,1.62,3.86,2.43,6.77,2.43,1.45,0,2.89-.29,4.32-.88,1.43-.59,2.71-1.41,3.83-2.46l4.71,4.71c-1.81,1.73-3.83,3.08-6.08,4.03s-4.51,1.42-6.79,1.42Z"/>
      <path class="cls-1" d="M146.31,74.62c-4.48,0-7.83-.93-10.07-2.78-2.24-1.85-3.36-4.69-3.36-8.51s1.02-6.35,3.08-8.14c2.05-1.79,5.13-2.69,9.23-2.69h10.37l.49,5.77h-10.83c-1.85,0-3.25.42-4.18,1.25-.94.83-1.41,2.1-1.41,3.81,0,1.85.62,3.22,1.86,4.11,1.24.89,3.11,1.34,5.59,1.34,2.72,0,4.76-.29,6.12-.88s2.04-1.5,2.04-2.74l.74,5.13c-.63.98-1.42,1.79-2.36,2.43s-2.01,1.11-3.22,1.42c-1.21.32-2.57.47-4.1.47ZM155.24,74.09v-23.13c0-2.39-.64-4.25-1.92-5.57-1.28-1.32-3.09-1.99-5.43-1.99-1.43,0-2.84.22-4.24.65-1.39.43-2.64,1.06-3.74,1.88l-5.24-3.59c1.38-1.66,3.2-2.96,5.47-3.88,2.26-.93,4.78-1.39,7.54-1.39,4.57,0,8.11,1.18,10.62,3.55s3.76,5.71,3.76,10.02v23.45h-6.82Z"/>
      <path class="cls-1" d="M170.14,44.07v-6.47h16.45v6.47h-16.45ZM182.45,74.27c-3,0-5.17-.83-6.52-2.5s-2.02-4.05-2.02-7.17V26.98h7.17v37.69c0,.87.18,1.55.53,2.04s.87.74,1.55.74h3.45v6.82h-4.15Z"/>
      <path class="cls-1" d="M212.51,74.62c-2.48,0-4.82-.23-7.01-.7s-4.24-1.17-6.15-2.11-3.7-2.11-5.36-3.52l4.46-5.48c1.95,1.69,4.09,2.95,6.43,3.8s4.89,1.27,7.63,1.27c3.7,0,6.57-.69,8.61-2.07s3.06-3.32,3.06-5.8v-.04c0-1.95-.52-3.43-1.55-4.46s-2.38-1.8-4.06-2.3-3.51-.92-5.5-1.25c-1.92-.33-3.86-.71-5.82-1.16s-3.76-1.14-5.4-2.09-2.96-2.31-3.96-4.1-1.49-4.16-1.49-7.14v-.04c0-4.76,1.58-8.44,4.75-11.06,3.16-2.61,7.63-3.92,13.39-3.92,2.74,0,5.43.44,8.05,1.32s5.18,2.22,7.66,4.03l-4.08,5.7c-1.95-1.45-3.88-2.53-5.82-3.23s-3.87-1.05-5.82-1.05c-3.49,0-6.21.7-8.14,2.09-1.93,1.39-2.9,3.37-2.9,5.92v.04c0,1.92.56,3.39,1.69,4.39,1.12,1.01,2.6,1.75,4.41,2.23s3.77.93,5.85,1.35c1.88.38,3.75.83,5.62,1.35s3.58,1.29,5.12,2.29,2.77,2.36,3.69,4.1,1.39,4,1.39,6.79v.07c0,4.71-1.64,8.36-4.92,10.93s-7.9,3.87-13.85,3.87Z"/>
      <path class="cls-1" d="M255.5,74.62c-5.02,0-8.9-1.38-11.65-4.15s-4.13-6.67-4.13-11.71v-6.01c0-4.99,1.38-8.85,4.13-11.58,2.75-2.73,6.64-4.1,11.65-4.1,2.86,0,5.44.5,7.73,1.51,2.3,1.01,4.12,2.45,5.48,4.32l-5.17,4.64c-1.01-1.17-2.2-2.07-3.59-2.71s-2.84-.95-4.36-.95c-2.77,0-4.91.77-6.43,2.32s-2.29,3.73-2.29,6.54v6.01c0,2.88.76,5.11,2.29,6.68s3.67,2.36,6.43,2.36c1.52,0,2.98-.34,4.36-1.02s2.58-1.64,3.59-2.88l5.17,4.99c-1.36,1.83-3.19,3.24-5.5,4.24s-4.88,1.49-7.72,1.49Z"/>
      <path class="cls-1" d="M288.3,74.62c-4.48,0-7.83-.93-10.07-2.78s-3.36-4.69-3.36-8.51,1.03-6.35,3.08-8.14,5.13-2.69,9.23-2.69h10.37l.49,5.77h-10.83c-1.85,0-3.25.42-4.18,1.25s-1.41,2.1-1.41,3.81c0,1.85.62,3.22,1.86,4.11s3.11,1.34,5.59,1.34c2.72,0,4.76-.29,6.12-.88s2.04-1.5,2.04-2.74l.74,5.13c-.63.98-1.42,1.79-2.36,2.43s-2.01,1.11-3.22,1.42-2.57.47-4.1.47ZM297.23,74.09v-23.13c0-2.39-.64-4.25-1.92-5.57s-3.09-1.99-5.43-1.99c-1.43,0-2.84.22-4.24.65s-2.64,1.06-3.74,1.88l-5.24-3.59c1.38-1.66,3.21-2.96,5.47-3.88,2.26-.93,4.78-1.39,7.54-1.39,4.57,0,8.11,1.18,10.62,3.55s3.76,5.71,3.76,10.02v23.45h-6.82Z"/>
      <path class="cls-1" d="M314.95,88.93v-51.33h7.17v51.33h-7.17ZM331.3,74.62c-2.27,0-4.25-.54-5.94-1.63s-2.93-2.63-3.73-4.62l.49-7.63c0,1.57.28,2.91.84,4.01s1.38,1.95,2.44,2.53,2.36.88,3.88.88c2.37,0,4.2-.72,5.5-2.16s1.95-3.47,1.95-6.1v-7.91c0-2.67-.65-4.75-1.95-6.22s-3.13-2.21-5.5-2.21c-1.52,0-2.82.28-3.88.84s-1.88,1.38-2.44,2.46-.84,2.39-.84,3.94l-.74-7.03c1.1-2.13,2.54-3.78,4.32-4.94s3.76-1.74,5.94-1.74c3.91,0,6.94,1.3,9.07,3.88,2.13,2.59,3.2,6.25,3.2,10.99v7.95c0,4.66-1.1,8.29-3.3,10.86s-5.31,3.87-9.32,3.87Z"/>
      <path class="cls-1" d="M369.06,74.62c-5.09,0-9.02-1.42-11.81-4.25s-4.18-6.87-4.18-12.09v-4.11c0-5.44,1.34-9.64,4.03-12.62,2.68-2.98,6.46-4.46,11.34-4.46,4.59,0,8.15,1.69,10.67,5.06s3.78,8.11,3.78,14.2v2.39h-24.61v-5.77h17.79c-.21-2.95-.98-5.26-2.3-6.93s-3.1-2.5-5.33-2.5c-2.7,0-4.79.89-6.29,2.67s-2.25,4.3-2.25,7.56v4.64c0,3.02.8,5.34,2.41,6.96s3.86,2.43,6.77,2.43c1.45,0,2.89-.29,4.32-.88s2.71-1.41,3.83-2.46l4.71,4.71c-1.8,1.73-3.83,3.08-6.08,4.03s-4.51,1.42-6.79,1.42Z"/>
    </g>
  </g>
</svg>