<?xml version="1.0" encoding="UTF-8"?>
<svg id="Layer_2" data-name="Layer 2" xmlns="http://www.w3.org/2000/svg" viewBox="0 0 115.53 99.37">
  <defs>
    <style>
      .cls-1 {
        fill: #333;
        stroke-width: 0px;
      }
    </style>
  </defs>
  <g id="Layer_2-2" data-name="Layer 2">
    <path class="cls-1" d="M85.7,56.58c-3.39-4.51-8.16-7.22-14.31-8.13,6.24-1.14,10.82-3.77,13.73-7.89,2.92-4.12,4.38-8.67,4.38-13.64,0-8.2-2.4-14.73-7.18-19.61-4.78-4.87-12.07-7.31-21.87-7.31h-12.23v12.91h9.7c5.83,0,10.21,1.23,13.12,3.69,2.92,2.46,4.38,6.18,4.38,11.14,0,4.7-1.31,8.26-3.93,10.7s-6.51,3.66-11.65,3.66h-11.62v12.57h11.62c6.01,0,10.33,1.47,12.95,4.41s3.93,6.87,3.93,11.79v.2c0,4.61-1.54,8.32-4.62,11.14-3.07,2.83-8.3,4.24-15.68,4.24h-8.2v12.92h13.39c8.98,0,16.09-2.49,21.33-7.45,5.23-4.97,7.85-11.51,7.85-19.62v-.2c0-5.83-1.69-11-5.09-15.52ZM28.04,99.37h13.93v-12.92h-.06v-31.78h.06v-12.57h-.06V12.91h.06V0h-13.93v99.37Z"/>
    <path class="cls-1" d="M20.04,30.65v40h-.04c-11.04,0-20-8.96-20-20s8.96-20,20-20h.04Z"/>
    <path class="cls-1" d="M95.49,30.65v40s.04,0,.04,0c11.04,0,20-8.96,20-20,0-11.05-8.96-20-20-20h-.04Z"/>
  </g>
</svg>